<mxfile host="app.diagrams.net" modified="2024-05-30T12:09:18.951Z" agent="Mozilla/5.0 (Windows NT 10.0; Win64; x64) AppleWebKit/537.36 (KHTML, like Gecko) Chrome/125.0.0.0 Safari/537.36" etag="PtzmTsKyqM5HLXd-H2hT" version="24.4.10" type="device">
  <diagram name="Flowchart CDAC Project" id="3H7VCfTwJGcNsvzC-saa">
    <mxGraphModel dx="1050" dy="557" grid="1" gridSize="10" guides="1" tooltips="1" connect="1" arrows="1" fold="1" page="1" pageScale="1" pageWidth="827" pageHeight="1169" math="0" shadow="0">
      <root>
        <mxCell id="0" />
        <mxCell id="1" parent="0" />
        <mxCell id="c5Ohos4aBFcbHTDep5dI-3" value="" style="edgeStyle=orthogonalEdgeStyle;rounded=0;orthogonalLoop=1;jettySize=auto;html=1;" parent="1" source="c5Ohos4aBFcbHTDep5dI-1" target="c5Ohos4aBFcbHTDep5dI-2" edge="1">
          <mxGeometry relative="1" as="geometry" />
        </mxCell>
        <mxCell id="c5Ohos4aBFcbHTDep5dI-1" value="&lt;span style=&quot;font-size: 15px;&quot;&gt;&lt;b&gt;Two Data Sets&lt;/b&gt;&lt;/span&gt;" style="rounded=0;whiteSpace=wrap;html=1;" parent="1" vertex="1">
          <mxGeometry x="40" y="40" width="120" height="60" as="geometry" />
        </mxCell>
        <mxCell id="c5Ohos4aBFcbHTDep5dI-2" value="&lt;b&gt;&lt;font style=&quot;font-size: 15px;&quot;&gt;Data Collection&lt;/font&gt;&lt;/b&gt;" style="whiteSpace=wrap;html=1;rounded=0;" parent="1" vertex="1">
          <mxGeometry x="40" y="180" width="120" height="60" as="geometry" />
        </mxCell>
        <mxCell id="c5Ohos4aBFcbHTDep5dI-4" value="" style="endArrow=none;html=1;rounded=0;entryX=0.5;entryY=1;entryDx=0;entryDy=0;" parent="1" edge="1">
          <mxGeometry width="50" height="50" relative="1" as="geometry">
            <mxPoint x="99.5" y="365" as="sourcePoint" />
            <mxPoint x="99.5" y="235" as="targetPoint" />
            <Array as="points">
              <mxPoint x="100" y="515" />
            </Array>
          </mxGeometry>
        </mxCell>
        <mxCell id="c5Ohos4aBFcbHTDep5dI-5" value="" style="endArrow=classic;html=1;rounded=0;" parent="1" edge="1">
          <mxGeometry width="50" height="50" relative="1" as="geometry">
            <mxPoint x="100" y="280" as="sourcePoint" />
            <mxPoint x="160" y="280" as="targetPoint" />
            <Array as="points">
              <mxPoint x="160" y="280" />
            </Array>
          </mxGeometry>
        </mxCell>
        <mxCell id="c5Ohos4aBFcbHTDep5dI-6" value="" style="endArrow=classic;html=1;rounded=0;" parent="1" edge="1">
          <mxGeometry width="50" height="50" relative="1" as="geometry">
            <mxPoint x="100" y="320" as="sourcePoint" />
            <mxPoint x="160" y="320" as="targetPoint" />
            <Array as="points">
              <mxPoint x="160" y="320" />
            </Array>
          </mxGeometry>
        </mxCell>
        <mxCell id="c5Ohos4aBFcbHTDep5dI-7" value="" style="endArrow=classic;html=1;rounded=0;" parent="1" edge="1">
          <mxGeometry width="50" height="50" relative="1" as="geometry">
            <mxPoint x="100" y="338" as="sourcePoint" />
            <mxPoint x="160" y="338" as="targetPoint" />
            <Array as="points">
              <mxPoint x="160" y="338" />
            </Array>
          </mxGeometry>
        </mxCell>
        <mxCell id="c5Ohos4aBFcbHTDep5dI-8" value="" style="endArrow=classic;html=1;rounded=0;" parent="1" edge="1">
          <mxGeometry width="50" height="50" relative="1" as="geometry">
            <mxPoint x="100" y="360" as="sourcePoint" />
            <mxPoint x="160" y="360" as="targetPoint" />
            <Array as="points">
              <mxPoint x="160" y="360" />
            </Array>
          </mxGeometry>
        </mxCell>
        <mxCell id="c5Ohos4aBFcbHTDep5dI-9" value="" style="endArrow=classic;html=1;rounded=0;" parent="1" edge="1">
          <mxGeometry width="50" height="50" relative="1" as="geometry">
            <mxPoint x="100" y="380" as="sourcePoint" />
            <mxPoint x="160" y="380" as="targetPoint" />
            <Array as="points">
              <mxPoint x="160" y="380" />
            </Array>
          </mxGeometry>
        </mxCell>
        <mxCell id="c5Ohos4aBFcbHTDep5dI-10" value="" style="endArrow=classic;html=1;rounded=0;" parent="1" edge="1">
          <mxGeometry width="50" height="50" relative="1" as="geometry">
            <mxPoint x="100" y="400" as="sourcePoint" />
            <mxPoint x="160" y="400" as="targetPoint" />
            <Array as="points">
              <mxPoint x="160" y="400" />
            </Array>
          </mxGeometry>
        </mxCell>
        <mxCell id="c5Ohos4aBFcbHTDep5dI-11" value="" style="endArrow=classic;html=1;rounded=0;" parent="1" edge="1">
          <mxGeometry width="50" height="50" relative="1" as="geometry">
            <mxPoint x="100" y="420" as="sourcePoint" />
            <mxPoint x="160" y="420" as="targetPoint" />
            <Array as="points">
              <mxPoint x="160" y="420" />
            </Array>
          </mxGeometry>
        </mxCell>
        <mxCell id="c5Ohos4aBFcbHTDep5dI-19" value="&lt;span style=&quot;font-size: 15px;&quot;&gt;&lt;b&gt;Combine using&amp;nbsp;&lt;/b&gt;&lt;/span&gt;&lt;div&gt;&lt;span style=&quot;font-size: 15px;&quot;&gt;&lt;b&gt;Excel work&lt;/b&gt;&lt;/span&gt;&lt;/div&gt;" style="rounded=1;whiteSpace=wrap;html=1;" parent="1" vertex="1">
          <mxGeometry x="115" y="120" width="120" height="40" as="geometry" />
        </mxCell>
        <mxCell id="c5Ohos4aBFcbHTDep5dI-20" value="" style="endArrow=classic;html=1;rounded=0;exitX=1;exitY=0.5;exitDx=0;exitDy=0;" parent="1" source="c5Ohos4aBFcbHTDep5dI-2" edge="1">
          <mxGeometry width="50" height="50" relative="1" as="geometry">
            <mxPoint x="240" y="220" as="sourcePoint" />
            <mxPoint x="280" y="210" as="targetPoint" />
          </mxGeometry>
        </mxCell>
        <mxCell id="c5Ohos4aBFcbHTDep5dI-22" value="&lt;b&gt;&lt;i&gt;&lt;font style=&quot;font-size: 15px;&quot;&gt;Data Cleaning&lt;/font&gt;&lt;/i&gt;&lt;/b&gt;" style="rounded=0;whiteSpace=wrap;html=1;" parent="1" vertex="1">
          <mxGeometry x="280" y="180" width="120" height="60" as="geometry" />
        </mxCell>
        <mxCell id="c5Ohos4aBFcbHTDep5dI-47" value="" style="endArrow=none;html=1;rounded=0;entryX=0.5;entryY=1;entryDx=0;entryDy=0;" parent="1" target="c5Ohos4aBFcbHTDep5dI-22" edge="1">
          <mxGeometry width="50" height="50" relative="1" as="geometry">
            <mxPoint x="340" y="440" as="sourcePoint" />
            <mxPoint x="440" y="250" as="targetPoint" />
          </mxGeometry>
        </mxCell>
        <mxCell id="c5Ohos4aBFcbHTDep5dI-49" value="" style="endArrow=classic;html=1;rounded=0;" parent="1" edge="1">
          <mxGeometry width="50" height="50" relative="1" as="geometry">
            <mxPoint x="340" y="282.5" as="sourcePoint" />
            <mxPoint x="400" y="282.5" as="targetPoint" />
            <Array as="points">
              <mxPoint x="400" y="282.5" />
            </Array>
          </mxGeometry>
        </mxCell>
        <mxCell id="c5Ohos4aBFcbHTDep5dI-50" value="&lt;b&gt;&lt;i&gt;&lt;font style=&quot;font-size: 15px;&quot;&gt;Removing&amp;nbsp;&lt;/font&gt;&lt;/i&gt;&lt;/b&gt;&lt;div&gt;&lt;div style=&quot;text-align: left;&quot;&gt;&lt;span style=&quot;font-size: 15px;&quot;&gt;&lt;b&gt;&lt;i&gt;?&amp;nbsp;&lt;/i&gt;&lt;/b&gt;&lt;/span&gt;&lt;b style=&quot;background-color: initial;&quot;&gt;&lt;i&gt;&lt;font style=&quot;font-size: 15px;&quot;&gt;Values&lt;/font&gt;&lt;/i&gt;&lt;/b&gt;&lt;/div&gt;&lt;/div&gt;" style="text;html=1;align=center;verticalAlign=middle;resizable=0;points=[];autosize=1;strokeColor=none;fillColor=none;" parent="1" vertex="1">
          <mxGeometry x="400" y="270" width="100" height="50" as="geometry" />
        </mxCell>
        <mxCell id="c5Ohos4aBFcbHTDep5dI-54" value="" style="endArrow=classic;html=1;rounded=0;" parent="1" edge="1">
          <mxGeometry width="50" height="50" relative="1" as="geometry">
            <mxPoint x="340" y="442.5" as="sourcePoint" />
            <mxPoint x="400" y="442.5" as="targetPoint" />
            <Array as="points">
              <mxPoint x="400" y="442.5" />
            </Array>
          </mxGeometry>
        </mxCell>
        <mxCell id="c5Ohos4aBFcbHTDep5dI-55" value="&lt;b style=&quot;font-size: 15px;&quot;&gt;&lt;i&gt;&lt;font style=&quot;font-size: 15px;&quot;&gt;Categorical to&amp;nbsp;&lt;/font&gt;&lt;/i&gt;&lt;/b&gt;&lt;div style=&quot;&quot;&gt;&lt;font size=&quot;1&quot; style=&quot;&quot;&gt;&lt;b style=&quot;&quot;&gt;&lt;i style=&quot;font-size: 15px;&quot;&gt;Numeric data&lt;/i&gt;&lt;/b&gt;&lt;/font&gt;&lt;/div&gt;" style="text;html=1;align=center;verticalAlign=middle;resizable=0;points=[];autosize=1;strokeColor=none;fillColor=none;" parent="1" vertex="1">
          <mxGeometry x="400" y="428" width="130" height="50" as="geometry" />
        </mxCell>
        <mxCell id="c5Ohos4aBFcbHTDep5dI-56" value="" style="endArrow=classic;html=1;rounded=0;" parent="1" target="c5Ohos4aBFcbHTDep5dI-57" edge="1">
          <mxGeometry width="50" height="50" relative="1" as="geometry">
            <mxPoint x="400" y="209.5" as="sourcePoint" />
            <mxPoint x="460" y="209.5" as="targetPoint" />
            <Array as="points">
              <mxPoint x="460" y="209.5" />
            </Array>
          </mxGeometry>
        </mxCell>
        <mxCell id="c5Ohos4aBFcbHTDep5dI-57" value="&lt;b&gt;&lt;i&gt;&lt;font style=&quot;font-size: 15px;&quot;&gt;Data Preprocessing&lt;/font&gt;&lt;/i&gt;&lt;/b&gt;" style="rounded=0;whiteSpace=wrap;html=1;" parent="1" vertex="1">
          <mxGeometry x="500" y="180" width="120" height="60" as="geometry" />
        </mxCell>
        <mxCell id="c5Ohos4aBFcbHTDep5dI-58" value="" style="endArrow=none;html=1;rounded=0;entryX=0.5;entryY=1;entryDx=0;entryDy=0;" parent="1" target="c5Ohos4aBFcbHTDep5dI-57" edge="1">
          <mxGeometry width="50" height="50" relative="1" as="geometry">
            <mxPoint x="560" y="320" as="sourcePoint" />
            <mxPoint x="440" y="230" as="targetPoint" />
          </mxGeometry>
        </mxCell>
        <mxCell id="c5Ohos4aBFcbHTDep5dI-59" value="" style="endArrow=classic;html=1;rounded=0;" parent="1" edge="1">
          <mxGeometry width="50" height="50" relative="1" as="geometry">
            <mxPoint x="560" y="320" as="sourcePoint" />
            <mxPoint x="620" y="320" as="targetPoint" />
            <Array as="points">
              <mxPoint x="620" y="320" />
            </Array>
          </mxGeometry>
        </mxCell>
        <mxCell id="c5Ohos4aBFcbHTDep5dI-61" value="" style="endArrow=classic;html=1;rounded=0;exitX=1;exitY=0.5;exitDx=0;exitDy=0;" parent="1" source="c5Ohos4aBFcbHTDep5dI-57" edge="1">
          <mxGeometry width="50" height="50" relative="1" as="geometry">
            <mxPoint x="670" y="235" as="sourcePoint" />
            <mxPoint x="760" y="210" as="targetPoint" />
          </mxGeometry>
        </mxCell>
        <mxCell id="c5Ohos4aBFcbHTDep5dI-67" value="" style="endArrow=classic;html=1;rounded=0;" parent="1" edge="1">
          <mxGeometry width="50" height="50" relative="1" as="geometry">
            <mxPoint x="600" y="590" as="sourcePoint" />
            <mxPoint x="600" y="640" as="targetPoint" />
          </mxGeometry>
        </mxCell>
        <mxCell id="c5Ohos4aBFcbHTDep5dI-68" value="&lt;b&gt;&lt;i&gt;&lt;font style=&quot;font-size: 15px;&quot;&gt;Data Labeling&lt;/font&gt;&lt;/i&gt;&lt;/b&gt;" style="rounded=0;whiteSpace=wrap;html=1;" parent="1" vertex="1">
          <mxGeometry x="535" y="640" width="120" height="60" as="geometry" />
        </mxCell>
        <mxCell id="c5Ohos4aBFcbHTDep5dI-69" value="" style="endArrow=classic;html=1;rounded=0;" parent="1" edge="1">
          <mxGeometry width="50" height="50" relative="1" as="geometry">
            <mxPoint x="600" y="700" as="sourcePoint" />
            <mxPoint x="600" y="760" as="targetPoint" />
          </mxGeometry>
        </mxCell>
        <mxCell id="c5Ohos4aBFcbHTDep5dI-70" value="&lt;b&gt;&lt;i&gt;&lt;font style=&quot;font-size: 15px;&quot;&gt;Data Splitting&lt;/font&gt;&lt;/i&gt;&lt;/b&gt;" style="text;html=1;align=center;verticalAlign=middle;resizable=0;points=[];autosize=1;strokeColor=none;fillColor=none;" parent="1" vertex="1">
          <mxGeometry x="540" y="758" width="120" height="30" as="geometry" />
        </mxCell>
        <mxCell id="c5Ohos4aBFcbHTDep5dI-73" value="" style="endArrow=classic;html=1;rounded=0;exitX=0.49;exitY=1.167;exitDx=0;exitDy=0;exitPerimeter=0;" parent="1" source="c5Ohos4aBFcbHTDep5dI-70" edge="1">
          <mxGeometry width="50" height="50" relative="1" as="geometry">
            <mxPoint x="390" y="620" as="sourcePoint" />
            <mxPoint x="530" y="840" as="targetPoint" />
          </mxGeometry>
        </mxCell>
        <mxCell id="c5Ohos4aBFcbHTDep5dI-75" value="" style="endArrow=classic;html=1;rounded=0;exitX=0.47;exitY=1.193;exitDx=0;exitDy=0;exitPerimeter=0;" parent="1" source="c5Ohos4aBFcbHTDep5dI-70" edge="1">
          <mxGeometry width="50" height="50" relative="1" as="geometry">
            <mxPoint x="600" y="800" as="sourcePoint" />
            <mxPoint x="660" y="840" as="targetPoint" />
          </mxGeometry>
        </mxCell>
        <mxCell id="c5Ohos4aBFcbHTDep5dI-77" value="&lt;span style=&quot;text-wrap: nowrap; font-size: 15px;&quot;&gt;&lt;b style=&quot;&quot;&gt;&lt;i&gt;Train&lt;/i&gt;&lt;/b&gt;&lt;/span&gt;&lt;div style=&quot;text-wrap: nowrap; font-size: 15px;&quot;&gt;&lt;b style=&quot;&quot;&gt;&lt;i&gt;set&lt;/i&gt;&lt;/b&gt;&lt;/div&gt;" style="rounded=0;whiteSpace=wrap;html=1;" parent="1" vertex="1">
          <mxGeometry x="450" y="850" width="120" height="60" as="geometry" />
        </mxCell>
        <mxCell id="c5Ohos4aBFcbHTDep5dI-78" value="&lt;span style=&quot;text-wrap: nowrap; font-size: 15px;&quot;&gt;&lt;b&gt;&lt;i&gt;Test&lt;/i&gt;&lt;/b&gt;&lt;/span&gt;&lt;div style=&quot;text-wrap: nowrap; font-size: 15px;&quot;&gt;&lt;b&gt;&lt;i&gt;set&lt;/i&gt;&lt;/b&gt;&lt;/div&gt;" style="rounded=0;whiteSpace=wrap;html=1;" parent="1" vertex="1">
          <mxGeometry x="620" y="850" width="120" height="60" as="geometry" />
        </mxCell>
        <mxCell id="c5Ohos4aBFcbHTDep5dI-79" value="&lt;b&gt;&lt;i&gt;&lt;font style=&quot;font-size: 15px;&quot;&gt;Model Training&lt;/font&gt;&lt;/i&gt;&lt;/b&gt;" style="rounded=1;whiteSpace=wrap;html=1;" parent="1" vertex="1">
          <mxGeometry x="280" y="960" width="120" height="60" as="geometry" />
        </mxCell>
        <mxCell id="c5Ohos4aBFcbHTDep5dI-80" value="" style="endArrow=classic;html=1;rounded=0;exitX=0;exitY=0.5;exitDx=0;exitDy=0;" parent="1" source="c5Ohos4aBFcbHTDep5dI-77" edge="1">
          <mxGeometry width="50" height="50" relative="1" as="geometry">
            <mxPoint x="315" y="890" as="sourcePoint" />
            <mxPoint x="340" y="880" as="targetPoint" />
          </mxGeometry>
        </mxCell>
        <mxCell id="c5Ohos4aBFcbHTDep5dI-81" value="" style="endArrow=classic;html=1;rounded=0;" parent="1" edge="1">
          <mxGeometry width="50" height="50" relative="1" as="geometry">
            <mxPoint x="340" y="880" as="sourcePoint" />
            <mxPoint x="340" y="958" as="targetPoint" />
          </mxGeometry>
        </mxCell>
        <mxCell id="c5Ohos4aBFcbHTDep5dI-82" value="&lt;b&gt;&lt;i&gt;&lt;font style=&quot;font-size: 15px;&quot;&gt;Model&lt;/font&gt;&lt;/i&gt;&lt;/b&gt;&lt;div&gt;&lt;b&gt;&lt;i&gt;&lt;font style=&quot;font-size: 15px;&quot;&gt;Testing&lt;/font&gt;&lt;/i&gt;&lt;/b&gt;&lt;/div&gt;" style="rounded=1;whiteSpace=wrap;html=1;" parent="1" vertex="1">
          <mxGeometry x="460" y="960" width="120" height="60" as="geometry" />
        </mxCell>
        <mxCell id="c5Ohos4aBFcbHTDep5dI-83" value="" style="endArrow=classic;html=1;rounded=0;exitX=1;exitY=0.5;exitDx=0;exitDy=0;entryX=0;entryY=0.5;entryDx=0;entryDy=0;" parent="1" source="c5Ohos4aBFcbHTDep5dI-79" target="c5Ohos4aBFcbHTDep5dI-82" edge="1">
          <mxGeometry width="50" height="50" relative="1" as="geometry">
            <mxPoint x="390" y="920" as="sourcePoint" />
            <mxPoint x="440" y="870" as="targetPoint" />
          </mxGeometry>
        </mxCell>
        <mxCell id="c5Ohos4aBFcbHTDep5dI-84" value="" style="endArrow=classic;html=1;rounded=0;exitX=0.5;exitY=1;exitDx=0;exitDy=0;" parent="1" source="c5Ohos4aBFcbHTDep5dI-78" edge="1">
          <mxGeometry width="50" height="50" relative="1" as="geometry">
            <mxPoint x="390" y="920" as="sourcePoint" />
            <mxPoint x="680" y="990" as="targetPoint" />
          </mxGeometry>
        </mxCell>
        <mxCell id="c5Ohos4aBFcbHTDep5dI-85" value="" style="endArrow=classic;html=1;rounded=0;entryX=1;entryY=0.5;entryDx=0;entryDy=0;" parent="1" target="c5Ohos4aBFcbHTDep5dI-82" edge="1">
          <mxGeometry width="50" height="50" relative="1" as="geometry">
            <mxPoint x="680" y="990" as="sourcePoint" />
            <mxPoint x="440" y="870" as="targetPoint" />
          </mxGeometry>
        </mxCell>
        <mxCell id="c5Ohos4aBFcbHTDep5dI-86" value="" style="endArrow=classic;html=1;rounded=0;exitX=0.5;exitY=1;exitDx=0;exitDy=0;" parent="1" source="c5Ohos4aBFcbHTDep5dI-82" edge="1">
          <mxGeometry width="50" height="50" relative="1" as="geometry">
            <mxPoint x="390" y="1080" as="sourcePoint" />
            <mxPoint x="520" y="1080" as="targetPoint" />
          </mxGeometry>
        </mxCell>
        <mxCell id="c5Ohos4aBFcbHTDep5dI-87" value="&lt;b&gt;&lt;i&gt;&lt;font style=&quot;font-size: 15px;&quot;&gt;Model&lt;/font&gt;&lt;/i&gt;&lt;/b&gt;" style="rounded=1;whiteSpace=wrap;html=1;" parent="1" vertex="1">
          <mxGeometry x="460" y="1080" width="120" height="60" as="geometry" />
        </mxCell>
        <mxCell id="c5Ohos4aBFcbHTDep5dI-88" value="" style="endArrow=classic;html=1;rounded=0;exitX=0.5;exitY=1;exitDx=0;exitDy=0;" parent="1" source="c5Ohos4aBFcbHTDep5dI-87" edge="1">
          <mxGeometry width="50" height="50" relative="1" as="geometry">
            <mxPoint x="365" y="1140" as="sourcePoint" />
            <mxPoint x="520" y="1200" as="targetPoint" />
          </mxGeometry>
        </mxCell>
        <mxCell id="c5Ohos4aBFcbHTDep5dI-89" value="&lt;b&gt;&lt;i&gt;&lt;font style=&quot;font-size: 15px;&quot;&gt;Website&lt;/font&gt;&lt;/i&gt;&lt;/b&gt;" style="rounded=1;whiteSpace=wrap;html=1;" parent="1" vertex="1">
          <mxGeometry x="115" y="1090" width="120" height="60" as="geometry" />
        </mxCell>
        <mxCell id="c5Ohos4aBFcbHTDep5dI-90" value="" style="endArrow=classic;html=1;rounded=0;exitX=1;exitY=0.5;exitDx=0;exitDy=0;" parent="1" source="c5Ohos4aBFcbHTDep5dI-89" edge="1">
          <mxGeometry width="50" height="50" relative="1" as="geometry">
            <mxPoint x="390" y="1210" as="sourcePoint" />
            <mxPoint x="460" y="1120" as="targetPoint" />
          </mxGeometry>
        </mxCell>
        <mxCell id="c5Ohos4aBFcbHTDep5dI-91" value="&lt;b&gt;&lt;i&gt;&lt;font style=&quot;font-size: 15px;&quot;&gt;HTML,CSS,BootStrap,&lt;/font&gt;&lt;/i&gt;&lt;/b&gt;&lt;div&gt;&lt;b&gt;&lt;i&gt;&lt;font style=&quot;font-size: 15px;&quot;&gt;Flask,MySql&lt;/font&gt;&lt;/i&gt;&lt;/b&gt;&lt;/div&gt;" style="rounded=0;whiteSpace=wrap;html=1;" parent="1" vertex="1">
          <mxGeometry x="10" y="970" width="165" height="60" as="geometry" />
        </mxCell>
        <mxCell id="c5Ohos4aBFcbHTDep5dI-92" value="" style="endArrow=none;html=1;rounded=0;exitX=0.5;exitY=1;exitDx=0;exitDy=0;" parent="1" source="c5Ohos4aBFcbHTDep5dI-89" edge="1">
          <mxGeometry width="50" height="50" relative="1" as="geometry">
            <mxPoint x="390" y="1210" as="sourcePoint" />
            <mxPoint x="175" y="1200" as="targetPoint" />
          </mxGeometry>
        </mxCell>
        <mxCell id="c5Ohos4aBFcbHTDep5dI-93" value="" style="endArrow=classic;html=1;rounded=0;" parent="1" edge="1">
          <mxGeometry width="50" height="50" relative="1" as="geometry">
            <mxPoint x="175" y="1200" as="sourcePoint" />
            <mxPoint x="235" y="1200" as="targetPoint" />
          </mxGeometry>
        </mxCell>
        <mxCell id="c5Ohos4aBFcbHTDep5dI-94" value="&lt;b style=&quot;font-size: 15px;&quot;&gt;&lt;i&gt;&lt;font style=&quot;font-size: 15px;&quot;&gt;Selecting a Movie&lt;/font&gt;&lt;/i&gt;&lt;/b&gt;&lt;div style=&quot;font-size: 15px;&quot;&gt;&lt;b&gt;&lt;i&gt;&lt;font style=&quot;font-size: 15px;&quot;&gt;from Dropdown&lt;/font&gt;&lt;/i&gt;&lt;/b&gt;&lt;/div&gt;" style="rounded=0;whiteSpace=wrap;html=1;" parent="1" vertex="1">
          <mxGeometry x="240" y="1190" width="120" height="60" as="geometry" />
        </mxCell>
        <mxCell id="c5Ohos4aBFcbHTDep5dI-96" value="" style="endArrow=classic;html=1;rounded=0;exitX=0.5;exitY=1;exitDx=0;exitDy=0;" parent="1" source="c5Ohos4aBFcbHTDep5dI-94" edge="1">
          <mxGeometry width="50" height="50" relative="1" as="geometry">
            <mxPoint x="390" y="1210" as="sourcePoint" />
            <mxPoint x="300" y="1290" as="targetPoint" />
          </mxGeometry>
        </mxCell>
        <mxCell id="c5Ohos4aBFcbHTDep5dI-97" value="&lt;b style=&quot;font-size: 15px;&quot;&gt;&lt;i&gt;&lt;font style=&quot;font-size: 15px;&quot;&gt;Selects Genre&lt;/font&gt;&lt;/i&gt;&lt;/b&gt;&lt;div style=&quot;font-size: 15px;&quot;&gt;&lt;b&gt;&lt;i&gt;&lt;font style=&quot;font-size: 15px;&quot;&gt;And Rating&lt;/font&gt;&lt;/i&gt;&lt;/b&gt;&lt;/div&gt;" style="rounded=0;whiteSpace=wrap;html=1;" parent="1" vertex="1">
          <mxGeometry x="240" y="1290" width="120" height="60" as="geometry" />
        </mxCell>
        <mxCell id="c5Ohos4aBFcbHTDep5dI-98" value="" style="endArrow=classic;html=1;rounded=0;" parent="1" edge="1">
          <mxGeometry width="50" height="50" relative="1" as="geometry">
            <mxPoint x="80" y="1030" as="sourcePoint" />
            <mxPoint x="80" y="1120" as="targetPoint" />
          </mxGeometry>
        </mxCell>
        <mxCell id="c5Ohos4aBFcbHTDep5dI-99" value="" style="endArrow=classic;html=1;rounded=0;entryX=0;entryY=0.5;entryDx=0;entryDy=0;" parent="1" target="c5Ohos4aBFcbHTDep5dI-89" edge="1">
          <mxGeometry width="50" height="50" relative="1" as="geometry">
            <mxPoint x="80" y="1120" as="sourcePoint" />
            <mxPoint x="440" y="1160" as="targetPoint" />
          </mxGeometry>
        </mxCell>
        <mxCell id="c5Ohos4aBFcbHTDep5dI-100" value="&lt;b style=&quot;font-size: 15px;&quot;&gt;&lt;i&gt;&lt;font style=&quot;font-size: 15px;&quot;&gt;Generate/Predict&lt;/font&gt;&lt;/i&gt;&lt;/b&gt;&lt;div style=&quot;font-size: 15px;&quot;&gt;&lt;b&gt;&lt;i&gt;&lt;font style=&quot;font-size: 15px;&quot;&gt;Recommendation&lt;/font&gt;&lt;/i&gt;&lt;/b&gt;&lt;/div&gt;" style="rounded=0;whiteSpace=wrap;html=1;" parent="1" vertex="1">
          <mxGeometry x="460" y="1200" width="130" height="60" as="geometry" />
        </mxCell>
        <mxCell id="c5Ohos4aBFcbHTDep5dI-101" value="&lt;b&gt;&lt;i&gt;&lt;font style=&quot;font-size: 15px;&quot;&gt;Display On the Webpage&lt;/font&gt;&lt;/i&gt;&lt;/b&gt;" style="rounded=0;whiteSpace=wrap;html=1;" parent="1" vertex="1">
          <mxGeometry x="470" y="1300" width="120" height="60" as="geometry" />
        </mxCell>
        <mxCell id="c5Ohos4aBFcbHTDep5dI-102" value="" style="endArrow=classic;html=1;rounded=0;exitX=0.5;exitY=1;exitDx=0;exitDy=0;entryX=0.447;entryY=-0.023;entryDx=0;entryDy=0;entryPerimeter=0;" parent="1" source="c5Ohos4aBFcbHTDep5dI-100" target="c5Ohos4aBFcbHTDep5dI-101" edge="1">
          <mxGeometry width="50" height="50" relative="1" as="geometry">
            <mxPoint x="390" y="1190" as="sourcePoint" />
            <mxPoint x="530" y="1280" as="targetPoint" />
          </mxGeometry>
        </mxCell>
        <mxCell id="x9-VHglzQhGaAa3vCctv-3" value="&lt;h2&gt;&lt;span style=&quot;font-size: 15px;&quot;&gt;Label Encoding&lt;/span&gt;&lt;/h2&gt;" style="text;html=1;align=center;verticalAlign=middle;whiteSpace=wrap;rounded=0;" vertex="1" parent="1">
          <mxGeometry x="630" y="308" width="60" height="30" as="geometry" />
        </mxCell>
        <mxCell id="x9-VHglzQhGaAa3vCctv-4" value="" style="endArrow=classic;html=1;rounded=0;" edge="1" parent="1">
          <mxGeometry width="50" height="50" relative="1" as="geometry">
            <mxPoint x="760" y="200" as="sourcePoint" />
            <mxPoint x="760" y="398" as="targetPoint" />
          </mxGeometry>
        </mxCell>
        <mxCell id="x9-VHglzQhGaAa3vCctv-10" value="&lt;h3&gt;&lt;span style=&quot;font-size: 15px;&quot;&gt;Cleaned&lt;br&gt;&lt;/span&gt;&lt;span style=&quot;font-size: 15px;&quot;&gt;Data&lt;/span&gt;&lt;/h3&gt;" style="text;html=1;align=center;verticalAlign=middle;whiteSpace=wrap;rounded=0;" vertex="1" parent="1">
          <mxGeometry x="720" y="398" width="80" height="62" as="geometry" />
        </mxCell>
        <mxCell id="x9-VHglzQhGaAa3vCctv-13" value="" style="endArrow=classic;html=1;rounded=0;" edge="1" parent="1">
          <mxGeometry width="50" height="50" relative="1" as="geometry">
            <mxPoint x="100" y="260" as="sourcePoint" />
            <mxPoint x="160" y="260" as="targetPoint" />
          </mxGeometry>
        </mxCell>
        <mxCell id="x9-VHglzQhGaAa3vCctv-16" value="&lt;h4&gt;&lt;font style=&quot;font-size: 13px;&quot;&gt;Age&lt;/font&gt;&lt;/h4&gt;" style="text;html=1;align=center;verticalAlign=middle;whiteSpace=wrap;rounded=0;" vertex="1" parent="1">
          <mxGeometry x="150" y="240" width="60" height="30" as="geometry" />
        </mxCell>
        <mxCell id="x9-VHglzQhGaAa3vCctv-17" value="&lt;h3&gt;&lt;span style=&quot;font-size: 13px;&quot;&gt;Workclass&lt;/span&gt;&lt;/h3&gt;" style="text;html=1;align=center;verticalAlign=middle;whiteSpace=wrap;rounded=0;" vertex="1" parent="1">
          <mxGeometry x="170" y="260" width="60" height="30" as="geometry" />
        </mxCell>
        <mxCell id="x9-VHglzQhGaAa3vCctv-19" value="" style="endArrow=classic;html=1;rounded=0;" edge="1" parent="1">
          <mxGeometry width="50" height="50" relative="1" as="geometry">
            <mxPoint x="100" y="300" as="sourcePoint" />
            <mxPoint x="160" y="300" as="targetPoint" />
          </mxGeometry>
        </mxCell>
        <mxCell id="x9-VHglzQhGaAa3vCctv-20" value="&lt;h3&gt;&lt;span style=&quot;font-size: 13px;&quot;&gt;Education&lt;/span&gt;&lt;/h3&gt;" style="text;html=1;align=center;verticalAlign=middle;whiteSpace=wrap;rounded=0;" vertex="1" parent="1">
          <mxGeometry x="170" y="280" width="60" height="30" as="geometry" />
        </mxCell>
        <mxCell id="x9-VHglzQhGaAa3vCctv-23" value="&lt;h3&gt;&lt;span style=&quot;font-size: 13px;&quot;&gt;Marital Status&lt;/span&gt;&lt;/h3&gt;" style="text;html=1;align=center;verticalAlign=middle;whiteSpace=wrap;rounded=0;" vertex="1" parent="1">
          <mxGeometry x="160" y="300" width="100" height="30" as="geometry" />
        </mxCell>
        <mxCell id="x9-VHglzQhGaAa3vCctv-24" value="&lt;h3&gt;&lt;span style=&quot;font-size: 13px;&quot;&gt;Occupation&lt;/span&gt;&lt;/h3&gt;" style="text;html=1;align=center;verticalAlign=middle;whiteSpace=wrap;rounded=0;" vertex="1" parent="1">
          <mxGeometry x="175" y="320" width="60" height="30" as="geometry" />
        </mxCell>
        <mxCell id="x9-VHglzQhGaAa3vCctv-25" value="&lt;h3&gt;&lt;span style=&quot;font-size: 13px;&quot;&gt;Race&lt;/span&gt;&lt;/h3&gt;" style="text;html=1;align=center;verticalAlign=middle;whiteSpace=wrap;rounded=0;" vertex="1" parent="1">
          <mxGeometry x="160" y="338" width="60" height="30" as="geometry" />
        </mxCell>
        <mxCell id="x9-VHglzQhGaAa3vCctv-26" value="&lt;h3&gt;&lt;span style=&quot;font-size: 13px;&quot;&gt;Gender&lt;/span&gt;&lt;/h3&gt;" style="text;html=1;align=center;verticalAlign=middle;whiteSpace=wrap;rounded=0;" vertex="1" parent="1">
          <mxGeometry x="160" y="360" width="60" height="30" as="geometry" />
        </mxCell>
        <mxCell id="x9-VHglzQhGaAa3vCctv-28" value="&lt;h3&gt;&lt;span style=&quot;font-size: 13px;&quot;&gt;capital gain/loss&lt;/span&gt;&lt;/h3&gt;" style="text;html=1;align=center;verticalAlign=middle;whiteSpace=wrap;rounded=0;" vertex="1" parent="1">
          <mxGeometry x="150" y="380" width="130" height="30" as="geometry" />
        </mxCell>
        <mxCell id="x9-VHglzQhGaAa3vCctv-30" value="&lt;h3&gt;&lt;span style=&quot;font-size: 13px;&quot;&gt;Native Country&lt;/span&gt;&lt;/h3&gt;" style="text;html=1;align=center;verticalAlign=middle;resizable=0;points=[];autosize=1;strokeColor=none;fillColor=none;" vertex="1" parent="1">
          <mxGeometry x="150" y="390" width="120" height="60" as="geometry" />
        </mxCell>
        <mxCell id="x9-VHglzQhGaAa3vCctv-34" value="" style="endArrow=classic;html=1;rounded=0;" edge="1" parent="1">
          <mxGeometry width="50" height="50" relative="1" as="geometry">
            <mxPoint x="100" y="440" as="sourcePoint" />
            <mxPoint x="160" y="440" as="targetPoint" />
          </mxGeometry>
        </mxCell>
        <mxCell id="x9-VHglzQhGaAa3vCctv-35" value="&lt;h3&gt;&lt;span style=&quot;font-size: 13px;&quot;&gt;Income&lt;/span&gt;&lt;/h3&gt;" style="text;html=1;align=center;verticalAlign=middle;resizable=0;points=[];autosize=1;strokeColor=none;fillColor=none;" vertex="1" parent="1">
          <mxGeometry x="160" y="410" width="70" height="60" as="geometry" />
        </mxCell>
      </root>
    </mxGraphModel>
  </diagram>
</mxfile>
